<svg id="Layer_1" data-name="Layer 1" xmlns="http://www.w3.org/2000/svg" viewBox="0 0 488.39 458.98"><defs><style>.cls-1{fill:#fff;}</style></defs><title>home_icon_white</title><g id="yGNJZp.tif"><path class="cls-1" d="M81.49,477.87a14.25,14.25,0,0,1-14.25-14.25q0-98.53,0-197.06c0-8.75,5.83-13.87,13.12-11.54a9.37,9.37,0,0,1,7,8.63c.16,1.73.09,3.49.09,5.23q0,91.85-.11,183.7c0,4.36,1.23,5.16,5.29,5.14q45.93-.25,91.85,0c3.72,0,4.69-.91,4.68-4.66-.14-40.93,0-78.93-.2-119.86,0-4.08,4-7.73,7.87-7.72,37.44.16,69,.17,106.47,0,4.09,0,7.72,4.05,7.71,7.87-.15,40.77,0,78.61-.18,119.38,0,5.09,1.2,4.51,10.18,4.62,29.05.36,52.61.72,81,0,9.38-.24,10.63.43,10.62-4.91q-.19-87.09-.08-174.18c0-2.37-.26-4.78.58-7.07a10.15,10.15,0,0,1,19.58,2.53,44.4,44.4,0,0,1,.07,4.76V465.68a12.16,12.16,0,0,1-12.16,12.16H296.11a6.7,6.7,0,0,1-6.7-6.91c0-.44,0-.87,0-1.31q-.06-56.58,0-113.16c0-9.38,0-9.39-9.43-9.39q-31.17,0-62.33,0a7,7,0,0,0-7,7q-.06,57.76,0,115.54c0,.52,0,1.05,0,1.59a6.43,6.43,0,0,1-6.43,6.63H81.49Z" transform="translate(-5.56 -18.89)"/><path class="cls-1" d="M493.67,257c-5.26,9.31-11.52,10.23-19.33,2.76Q364,154.26,253.7,48.64c-2.88-2.77-4.29-3-7.36-.09Q136.33,154.09,26.07,259.4c-2.41,2.31-4.73,4.73-8.29,5.19-5.48.7-8.62-2.68-11.46-6.59v-6.66a45.08,45.08,0,0,1,7.15-8Q129.87,132,246.16,20.58c3.1-3,5.91-1.69,9,1.26,78.18,75,155.17,148.59,233.48,223.43" transform="translate(-5.56 -18.89)"/><path class="cls-1" d="M370.25,51.44c12.85,0,22.77.08,35.62-.06,2.78,0,6.74,3.43,6.72,6.52-.14,25.38,0,47.84-.1,73.22,0,7.19-4.16,11.75-10.32,11.69s-10.1-4.63-10.11-11.89c0-18.08-.19-36.17.11-54.25.07-4.4-1.28-5.15-5.3-5.1-17.92.22-35.85.12-53.77.09-7.75,0-12.08-3.81-11.94-10.33.13-6.23,4.51-9.87,12-9.88Q351.7,51.42,370.25,51.44Z" transform="translate(-5.56 -18.89)"/></g><path class="cls-1" d="M491.56,260.26a9.79,9.79,0,0,1-4.94,4c-6.13,2.39-12.27-4.48-12.27-4.48l14.28-14.54,1.71,1.55-.26,6Z" transform="translate(-5.56 -18.89)"/><circle class="cls-1" cx="478.27" cy="235.67" r="10.12"/><circle class="cls-1" cx="10.12" cy="236.13" r="10.12"/></svg>