<?xml version="1.0" encoding="utf-8"?>
<!-- Generator: Adobe Illustrator 23.0.3, SVG Export Plug-In . SVG Version: 6.00 Build 0)  -->
<svg version="1.1" id="Layer_1" xmlns="http://www.w3.org/2000/svg" xmlns:xlink="http://www.w3.org/1999/xlink" x="0px" y="0px"
	 viewBox="0 0 500 500" style="enable-background:new 0 0 500 500;" xml:space="preserve">
<g id="yGNJZp.tif">
	<g>
		<path d="M81.49,477.87c-7.87,0-14.25-6.38-14.25-14.25c0-65.69,0-131.37,0.01-197.06c0-8.75,5.83-13.87,13.12-11.54
			c4.17,1.33,6.6,4.22,7,8.63c0.16,1.73,0.09,3.49,0.09,5.23c0,61.23,0.06,122.47-0.11,183.7c-0.01,4.36,1.23,5.16,5.29,5.14
			c30.62-0.17,61.23-0.16,91.85-0.01c3.72,0.02,4.69-0.91,4.68-4.66c-0.14-40.93-0.02-78.93-0.2-119.86
			c-0.02-4.08,4.03-7.73,7.87-7.72c37.44,0.16,69.03,0.17,106.47-0.02c4.09-0.02,7.72,4.05,7.71,7.87
			c-0.15,40.77-0.04,78.61-0.18,119.38c-0.02,5.09,1.2,4.51,10.18,4.62c29.05,0.36,52.61,0.72,80.98-0.01
			c9.38-0.24,10.63,0.43,10.62-4.91c-0.13-58.06-0.09-116.12-0.08-174.18c0-2.37-0.26-4.78,0.58-7.07
			c1.54-4.21,6.05-6.95,10.56-6.48c4.67,0.49,8.5,4.25,9.02,9.01c0.17,1.57,0.07,3.17,0.07,4.76c0,62.41,0,124.83,0,187.24
			c0,6.72-5.45,12.16-12.16,12.16h-124.5c-3.78,0-6.82-3.13-6.7-6.91c0.01-0.44,0.03-0.87,0.03-1.31
			c-0.04-37.72-0.02-75.44-0.03-113.16c0-9.38-0.01-9.39-9.43-9.39c-20.78,0-41.55-0.02-62.33,0.01c-3.86,0.01-6.99,3.14-7,7
			c-0.04,38.51,0,77.03-0.04,115.54c0,0.52,0.02,1.05,0.03,1.59c0.11,3.63-2.8,6.63-6.43,6.63H81.49z"/>
		<path d="M493.67,257.04c-5.26,9.31-11.52,10.23-19.33,2.76c-73.57-70.36-147.15-140.71-220.64-211.16
			c-2.88-2.77-4.29-3.03-7.36-0.09C173,118.91,99.52,189.14,26.07,259.4c-2.41,2.31-4.73,4.73-8.29,5.19
			c-5.48,0.7-8.62-2.68-11.46-6.59c0-2.22,0-4.44,0-6.66c1.96-3.05,4.54-5.54,7.15-8.03c77.6-74.21,155.2-148.41,232.69-222.73
			c3.1-2.97,5.91-1.69,8.99,1.26c78.18,74.97,155.17,148.59,233.48,223.43"/>
		<path d="M370.25,51.44c12.85,0,22.77,0.08,35.62-0.06c2.78-0.03,6.74,3.43,6.72,6.52c-0.14,25.38-0.05,47.84-0.1,73.22
			c-0.01,7.19-4.16,11.75-10.32,11.69c-6.14-0.06-10.1-4.63-10.11-11.89c-0.04-18.08-0.19-36.17,0.11-54.25
			c0.07-4.4-1.28-5.15-5.3-5.1c-17.92,0.22-35.85,0.12-53.77,0.09c-7.75-0.01-12.08-3.81-11.94-10.33
			c0.13-6.23,4.51-9.87,11.97-9.88C345.51,51.43,357.88,51.44,370.25,51.44z"/>
	</g>
</g>
<path d="M491.56,260.26c-2.12,3.22-4.94,4.02-4.94,4.02c-6.13,2.39-12.27-4.48-12.27-4.48l14.28-14.54l1.71,1.55l-0.26,6.02
	L491.56,260.26z"/>
<circle cx="483.83" cy="254.56" r="10.12"/>
<circle cx="15.68" cy="255.02" r="10.12"/>
</svg>
